<?xml version="1.0" encoding="UTF-8"?>
<svg id="Kilo_Code_Branding" xmlns="http://www.w3.org/2000/svg" version="1.1" viewBox="0 0 16 16" width="16" height="16">
  <g>
    <path fill="currentColor" d="M9.8,13.87h2.33v2.13h-2.93l-1.27,-1.45v-3.35h1.87v2.67ZM14.0,10.51l-1.27,-1.45h-2.93v2.13h2.33v2.67h1.87v-3.35ZM6.07,9.07h-1.87v2.13h1.87v-2.13ZM0.0,14.55l1.27,1.45h4.8v-2.13H1.87v-4.8H0.0v5.49ZM11.89,4.8V1.45L10.62,0h-2.69v2.13h2.09v2.67h-2.09v2.13h6.07v-2.13h-2.11ZM1.87,0.0H0.0v6.93h1.87v-2.4h2.6662779v2.4h1.87v-2.4l-1.87,-2.13h-2.33V0.0ZM6.07,0.0h-1.87v2.4h1.87V0Z" />
  </g>
</svg>
